<?xml version="1.0" encoding="UTF-8"?>
<svg id="Layer_1" xmlns="http://www.w3.org/2000/svg" xmlns:xlink="http://www.w3.org/1999/xlink" version="1.1" viewBox="0 0 1295.13 318.65">
  <!-- Generator: Adobe Illustrator 30.6.0, SVG Export Plug-In . SVG Version: 2.1.4 Build 109)  -->
  <defs>
    <style>
      .st0 {
        fill: url(#linear-gradient2);
        stroke: url(#linear-gradient3);
      }

      .st0, .st1 {
        stroke-miterlimit: 10;
      }

      .st1 {
        fill: url(#linear-gradient);
        stroke: url(#linear-gradient1);
      }

      .st2 {
        fill: #303030;
      }
    </style>
    <linearGradient id="linear-gradient" x1=".5" y1="159.33" x2="297.69" y2="159.33" gradientUnits="userSpaceOnUse">
      <stop offset="0" stop-color="#25f7a2"/>
      <stop offset="1" stop-color="#009dfd"/>
    </linearGradient>
    <linearGradient id="linear-gradient1" x1="0" x2="298.19" xlink:href="#linear-gradient"/>
    <linearGradient id="linear-gradient2" x1="112.04" y1="151.67" x2="186.05" y2="151.67" xlink:href="#linear-gradient"/>
    <linearGradient id="linear-gradient3" x1="111.54" y1="151.67" x2="186.55" y2="151.67" xlink:href="#linear-gradient"/>
  </defs>
  <g id="_x32_Q0OSX.tif">
    <g>
      <path class="st2" d="M1154.92,80.74l.03,90.66c-2.05,53.99-63.1,85.38-108.21,54.08-47.48-32.94-34.16-108.59,21.95-122.71,24.31-6.12,48.63.9,66.6,17.85v-39.89h19.63ZM1135.43,169.3c0-27.13-22.03-49.13-49.21-49.13s-49.21,22-49.21,49.13,22.03,49.13,49.21,49.13,49.21-22,49.21-49.13Z"/>
      <g>
        <path class="st1" d="M118.6.5l15.43,2.44c10.04,2.13,15.24,6.84,25.64,1.11l17.12-3.56h22.43l19.46,4.01c44.21,11.1,82.18,61.11,78.7,106.94-.58,7.68-4.56,14.59-12.96,15.05-26.76-1.77-56.35,2.26-82.77,0-4.54-.39-7.96-1.71-10.82-5.29-4.53-5.67-2.23-10.33-2.83-16.77-2.49-26.67-14.98-51.97-38.51-65.85-10.34,5.5-19.62,14.66-26.14,24.39-9.25,13.79-13.74,30.48-14.59,47.02-2.5,48.45,1.96,98.99-.01,147.66-3.64,14.03-23.75,13.88-26.61-.64l.02-156.08c2.36-23.64,10.92-45.92,26.27-64.06l8.07-8.38c-8.75-1.22-18.77.15-27.33,2.45-33.61,9.02-57.93,38.99-61.02,73.46,4.67,64.71-21.99,153.28,57.85,180.96,23.45,8.13,73.8,6.94,99.59,5.62,12.16-.62,24.68-3.14,35.64-8.51,28.92-14.18,47.82-39.6,47.4-72.7h-53.28v46.54c0,4.72-6.27,10.84-10.93,11.49-11.31,1.57-16.38-5.25-17.14-15.66-1.08-14.9-1.08-39.04,0-53.95.61-8.47,3.62-14.92,12.97-15.75l86.79.2c12.24,2.05,10.87,20.43,10.33,29.57-3.66,61.45-49.14,101.24-109,104.65-23.58,1.34-51.41,1.75-75.05.73-57.87-2.51-102.14-37.62-110.98-95.67l-1.5-14.95c.03-5.35-.04-10.74,0-16.1.2-28.67-1.24-62.41.71-90.63C5.16,47.86,50.67,4.27,102.48.5h16.12ZM267.92,99.18c-4.27-41.48-44.21-75.33-86.22-71.04,17.17,15.95,27.73,37.43,32.04,60.4.34,1.81.77,10.64,1.96,10.64h52.23Z"/>
        <path class="st0" d="M115.34,160.53c-6.92-7.38-2.34-20.45,7.9-21.38,16.37,1.19,35.7-1.89,51.72,0,14.79,1.75,14.79,23.29,0,25.04-15.85,1.88-34.9-1.23-51.09.07-2.98-.3-6.47-1.54-8.53-3.73Z"/>
      </g>
      <g>
        <path class="st2" d="M1295.13,176.89h-105.86c-.04,17.53,10.74,34.4,27.67,39.92,20.44,6.66,47.24.34,55.76-21.02h21.73c-10.01,34.35-47.31,48.43-80.36,39.98-62.66-16.02-62.23-117.3.84-133.02,34.4-8.57,68.03,8.21,77.6,42.81.77,2.77,2.62,9.6,2.62,12.08v19.25ZM1273.4,158.69c-2.76-52.65-79.85-51.52-83.42,0h83.42Z"/>
        <path class="st2" d="M1010.71,169.39c0,38.13-30.96,69.05-69.16,69.05s-69.16-30.91-69.16-69.05,30.96-69.05,69.16-69.05,69.16,30.91,69.16,69.05ZM936.06,119.7c-63.7,6.53-51.25,114.32,17.11,98.27,54.84-12.88,44.45-104.58-17.11-98.27Z"/>
        <path class="st2" d="M863.3,147.49h-21.03c-12.78-36.48-63.53-37.25-80.75-3.28-19.98,39.42,13.13,88.99,57.98,71.88,11.75-4.48,18.97-13.2,23.82-24.51h20.68c-12.9,54.58-90.28,62.58-119.04,16.31-16.05-25.81-13.64-63.23,6.89-85.93,33.13-36.62,100.91-24.67,111.44,25.53Z"/>
        <g>
          <path class="st2" d="M596.2,237.77h-20.33v-18.9c-48.01,44.96-126.09,5.84-116.18-60.35,8.21-54.79,76.35-76.96,116.19-38.69,8.27,7.94,20.32,28.41,20.32,39.9v78.04ZM575.71,169.5c0-26.53-21.54-48.04-48.11-48.04s-48.11,21.51-48.11,48.04,21.54,48.04,48.11,48.04,48.11-21.51,48.11-48.04Z"/>
          <path class="st2" d="M478.43,80.3v21h-89.03v42.69h56.78v21h-56.78v72.79h-21.03V92.55c0-4.66,7.59-12.25,12.27-12.25h97.79Z"/>
        </g>
        <g>
          <rect class="st2" x="617.24" y="124.39" width="20.33" height="113.38"/>
          <ellipse class="st2" cx="627.68" cy="95.15" rx="14.96" ry="14.93"/>
        </g>
        <path class="st2" d="M735.01,102.7v20.3c-20.94-.87-41.45,11.6-48.9,31.31-.71,1.88-2.97,8.81-2.97,10.33v73.14h-21.03v-70.33c-1.02-27.81,31.3-64.75,59.24-64.75h13.67Z"/>
      </g>
    </g>
  </g>
</svg>