<?xml version="1.0"?>
<svg xmlns="http://www.w3.org/2000/svg" viewBox="0 0 1249.22 407.05" width="1249" height="407">
  <title>Reddar</title>
  <g transform="translate(20,15)">
      <path fill="#fc1819" d="M334.12,90.27c-35.17-40.59-86.68-64.01-140.82-61-40.4,2.25-78.73,18.73-108.37,46.36-40.17,37.44-60.3,89.43-57.14,144.23,2.04,35.32,13.4,67.67,34.25,96.16,6.91,9.44,14.42,17.81,22.54,26.06,5.07,5.15,4.49,13.45-.1,18.31s-12.73,5.87-18.25,1.13c-7.94-6.82-14.65-14.76-21.23-23.07-23.78-29.99-37.57-62.23-42.9-100.27-3.76-26.83-2.45-54.09,3.74-80.55C19.65,98.51,59.49,47.78,113.75,20.57c12.64-6.34,25.68-11.26,39.46-14.54,38.43-9.16,72.87-7.71,110.69,3.24,33.69,9.75,65.86,31.54,88.7,57.95,23.17,26.8,39.16,57.65,47.11,92.19,2.68,11.63,4.16,23,4.89,34.94,3.15,51.6-11.4,101.03-42.57,142.23-6.77,8.94-13.95,17.39-22.31,24.7-4.16,3.64-10.16,3.68-14.69,1.31s-7.2-7.31-6.86-12.63c.26-4.16,2.33-7.39,5.28-10.25,14.83-14.41,26.8-31.26,35.87-49.95,26.97-55.58,24.28-121.86-7.62-174.8-5.27-8.75-10.86-16.95-17.57-24.7Z"></path>
      <path fill="#fc1819" d="M161.54,102.1c-12.33,4.95-23.02,11.78-32.79,20.34-22.13,19.36-35.93,46-38.74,75.33-.57,5.89-.91,11.29-.55,17.23,1.1,18.26,5.92,35.83,14.84,51.81,3.41,6.12,7.43,11.29,11.38,16.93,4.51,6.45,2.76,15.35-3.94,19.39-5.24,3.16-12.18,2.12-16.25-2.55-13.17-15.15-24.41-39.49-28.76-59.28-5.32-24.2-4.52-49.46,2.28-73.27,6.54-22.91,18.84-43.33,35.57-60.14,10.12-10.18,21.49-18.78,33.98-25.66,33.87-18.65,73.86-21.47,110.16-8.32,19.57,7.09,37.27,18.08,51.68,33.31,20.76,21.94,34.9,49.69,39.21,79.79,4.48,31.34-.91,63.3-15.48,91.37-4.29,8.26-9.22,16.05-15.31,22.88-3.28,3.67-8.7,4.28-13.14,2.96-4.2-1.25-7.46-5.17-8.46-9.75-1.11-5.1.91-9.18,3.94-13.12,14.03-18.26,21.94-40.3,23.62-63.36,1.9-25.92-5.01-51.72-19.08-73.48-6.83-10.56-15.2-19.45-25.15-27.06-19.25-14.73-42.49-23.36-66.86-23.7-14.59-.21-28.53,2.87-42.15,8.33Z"></path>
      <path fill="#fc1819" d="M228.12,371.4c-14.76,6.88-31.62,7.48-46.68,1.78-11.92-4.51-22.19-12.42-29.76-22.59-9.6-12.89-13.78-28.75-12.54-44.76.81-10.47,3.92-20.12,8.92-29.26l27.22-49.73,16.56-29.41c2.15-3.82,6.8-5.57,10.86-5.54s8.61,2.14,10.78,6.03l24.81,44.5,20.66,37.92c5,10.79,7.81,22.11,7.18,33.96-.56,10.57-2.91,20.54-8.27,29.68-6.95,11.86-17.01,21.48-29.74,27.42ZM228.83,340.72c7.37-6.93,11.47-15.88,12.85-25.78,1-9.48-1.27-18.62-5.92-27l-33.32-60.28-34.46,62.75c-3.69,6.72-5.21,14.31-4.89,21.85.5,11.93,6.01,23.03,15.18,30.38,15.09,12.1,36.4,11.39,50.57-1.93Z"></path>
      <path fill="#fc1819" d="M236.75,170.77c-19.12-16.56-48.85-16.6-68.26-.13-12.13,10.29-18.79,25.8-18.16,41.63.22,5.61,1.39,10.53,3.11,15.68.87,2.6.79,5.63-.54,8.01l-3.97,7.11c-1.98,3.55-5.49,5.57-9.69,5.07-3.44-.41-7.09-2.63-8.52-6.05-7.08-16.87-8.02-35.28-3.44-52.91,2.25-8.68,5.82-16.26,10.92-23.58,17.95-25.77,48.05-39.03,79.17-33.13,13.89,2.63,26.84,8.58,37.26,18.21,14.75,13.64,23.61,32.41,25.3,52.4,1.09,12.94-.9,25.3-5.18,37.4-1.83,5.19-6.39,8.47-12.06,7.61-3.05-.46-5.38-2.71-6.93-5.41l-3.78-6.62c-1.07-1.88-1.65-4.82-.81-7.08,7.68-20.51,2.27-43.76-14.43-58.22Z"></path>
  </g>
  <g transform="translate(480.02,246.43)">
    <path fill="#fc1819" transform="translate(0.00,0.00) scale(0.20000,-0.20000)" d="M429 0 275 272H209V0H69V698H331Q412 698 469.0 669.5Q526 641 554.5 592.5Q583 544 583 484Q583 415 543.0 359.5Q503 304 424 283L591 0ZM209 377H326Q383 377 411.0 404.5Q439 432 439 481Q439 529 411.0 555.5Q383 582 326 582H209Z"></path>
<path fill="#fc1819" transform="translate(128.20,0.00) scale(0.20000,-0.20000)" d="M580 235H175Q180 175 217.0 141.0Q254 107 308 107Q386 107 419 174H570Q546 94 478.0 42.5Q410 -9 311 -9Q231 -9 167.5 26.5Q104 62 68.5 127.0Q33 192 33 277Q33 363 68.0 428.0Q103 493 166.0 528.0Q229 563 311 563Q390 563 452.5 529.0Q515 495 549.5 432.5Q584 370 584 289Q584 259 580 235ZM439 329Q438 383 400.0 415.5Q362 448 307 448Q255 448 219.5 416.5Q184 385 176 329Z"></path>
<path fill="#fc1819" transform="translate(251.60,0.00) scale(0.20000,-0.20000)" d="M287 563Q341 563 390.0 539.5Q439 516 468 477V740H610V0H468V82Q442 41 395.0 16.0Q348 -9 286 -9Q216 -9 158.0 27.0Q100 63 66.5 128.5Q33 194 33 279Q33 363 66.5 428.0Q100 493 158.0 528.0Q216 563 287 563ZM322 440Q283 440 250.0 421.0Q217 402 196.5 365.5Q176 329 176 279Q176 229 196.5 191.5Q217 154 250.5 134.0Q284 114 322 114Q361 114 395.0 133.5Q429 153 449.0 189.5Q469 226 469 277Q469 328 449.0 364.5Q429 401 395.0 420.5Q361 440 322 440Z"></path>
<path fill="#fc1819" transform="translate(387.20,0.00) scale(0.20000,-0.20000)" d="M287 563Q341 563 390.0 539.5Q439 516 468 477V740H610V0H468V82Q442 41 395.0 16.0Q348 -9 286 -9Q216 -9 158.0 27.0Q100 63 66.5 128.5Q33 194 33 279Q33 363 66.5 428.0Q100 493 158.0 528.0Q216 563 287 563ZM322 440Q283 440 250.0 421.0Q217 402 196.5 365.5Q176 329 176 279Q176 229 196.5 191.5Q217 154 250.5 134.0Q284 114 322 114Q361 114 395.0 133.5Q429 153 449.0 189.5Q469 226 469 277Q469 328 449.0 364.5Q429 401 395.0 420.5Q361 440 322 440Z"></path>
<path fill="#fc1819" transform="translate(522.80,0.00) scale(0.20000,-0.20000)" d="M286 563Q348 563 394.5 538.0Q441 513 469 475V554H610V0H469V81Q442 42 394.5 16.5Q347 -9 285 -9Q215 -9 157.5 27.0Q100 63 66.5 128.5Q33 194 33 279Q33 363 66.5 428.0Q100 493 157.5 528.0Q215 563 286 563ZM322 440Q283 440 250.0 421.0Q217 402 196.5 365.5Q176 329 176 279Q176 229 196.5 191.5Q217 154 250.5 134.0Q284 114 322 114Q361 114 395.0 133.5Q429 153 449.0 189.5Q469 226 469 277Q469 328 449.0 364.5Q429 401 395.0 420.5Q361 440 322 440Z"></path>
<path fill="#fc1819" transform="translate(658.40,0.00) scale(0.20000,-0.20000)" d="M379 562V415H342Q276 415 242.5 384.0Q209 353 209 276V0H69V554H209V468Q236 512 279.5 537.0Q323 562 379 562Z"></path>
  </g>
  <!-- Tagline artwork intentionally removed: brand book only requires the
       "Reddar" wordmark to be fixed artwork. The tagline is live text
       (see Navbar.jsx) so it stays editable. -->
</svg>